<svg xmlns="http://www.w3.org/2000/svg" xmlns:xlink="http://www.w3.org/1999/xlink" version="1.1" id="Your_Icon" x="0px" y="0px" width="100px" height="100px" viewBox="5.0 -10.0 100.0 135.0" enable-background="new 0 0 100 100" xml:space="preserve">
<path fill="#000000" d="M15.25,3.782V8.24c-4.492,0-9.328,1.421-9.328,4.542c0,1.354,0.913,2.389,2.311,3.125  c-1.398,0.737-2.311,1.771-2.311,3.125s0.913,2.389,2.311,3.125c-1.398,0.737-2.311,1.771-2.311,3.126  c0,1.354,0.913,2.388,2.311,3.125c-1.398,0.737-2.311,1.771-2.311,3.125s0.913,2.389,2.311,3.125  c-1.398,0.737-2.311,1.771-2.311,3.125s0.913,2.389,2.311,3.125c-1.398,0.737-2.311,1.771-2.311,3.125s0.913,2.389,2.311,3.125  c-1.398,0.737-2.311,1.771-2.311,3.125s0.913,2.388,2.311,3.125c-1.398,0.737-2.311,1.771-2.311,3.125s0.913,2.388,2.311,3.125  c-1.398,0.737-2.311,1.771-2.311,3.125s0.913,2.388,2.311,3.125c-1.398,0.737-2.311,1.771-2.311,3.125s0.913,2.388,2.311,3.125  c-1.398,0.737-2.311,1.771-2.311,3.125s0.913,2.388,2.311,3.125c-1.398,0.737-2.311,1.771-2.311,3.125s0.913,2.388,2.311,3.125  c-1.398,0.737-2.311,1.771-2.311,3.125c0,3.121,4.835,4.542,9.328,4.542v4.457h80.5v-93H15.25z M15.25,89.491  c-4.087,0-6.333-1.264-6.498-1.672c0.164-0.48,2.411-1.744,6.498-1.744V89.491z M15.25,83.241c-4.087,0-6.333-1.264-6.498-1.672  c0.164-0.48,2.411-1.744,6.498-1.744V83.241z M15.25,76.991c-4.087,0-6.333-1.264-6.498-1.672c0.164-0.48,2.411-1.744,6.498-1.744  V76.991z M15.25,70.741c-4.087,0-6.333-1.264-6.498-1.672c0.164-0.48,2.411-1.744,6.498-1.744V70.741z M15.25,64.491  c-4.087,0-6.333-1.264-6.498-1.672c0.164-0.48,2.411-1.744,6.498-1.744V64.491z M15.25,58.241c-4.087,0-6.333-1.264-6.498-1.672  c0.164-0.48,2.411-1.744,6.498-1.744V58.241z M15.25,51.991c-4.087,0-6.333-1.264-6.498-1.671c0.164-0.48,2.411-1.744,6.498-1.744  V51.991z M15.25,45.741c-4.087,0-6.333-1.264-6.498-1.671c0.164-0.48,2.411-1.744,6.498-1.744V45.741z M15.25,39.491  c-4.087,0-6.333-1.264-6.498-1.671c0.164-0.48,2.411-1.744,6.498-1.744V39.491z M15.25,33.241c-4.087,0-6.333-1.264-6.498-1.671  c0.164-0.48,2.411-1.744,6.498-1.744V33.241z M15.25,26.99c-4.087,0-6.333-1.264-6.498-1.671c0.164-0.48,2.411-1.744,6.498-1.744  V26.99z M15.25,20.74c-4.087,0-6.333-1.264-6.498-1.671c0.164-0.48,2.411-1.744,6.498-1.744V20.74z M15.25,14.49  c-4.087,0-6.333-1.264-6.498-1.671c0.164-0.48,2.411-1.744,6.498-1.744V14.49z M25,89.535c-1.519,0-2.75-1.231-2.75-2.75  s1.231-2.75,2.75-2.75s2.75,1.231,2.75,2.75S26.519,89.535,25,89.535z M25,65.199c-1.519,0-2.75-1.231-2.75-2.75  s1.231-2.75,2.75-2.75s2.75,1.231,2.75,2.75S26.519,65.199,25,65.199z M25,40.864c-1.519,0-2.75-1.231-2.75-2.75  s1.231-2.75,2.75-2.75s2.75,1.231,2.75,2.75S26.519,40.864,25,40.864z M25,16.53c-1.519,0-2.75-1.231-2.75-2.75  s1.231-2.75,2.75-2.75s2.75,1.231,2.75,2.75S26.519,16.53,25,16.53z"/>
<text x="0.0" y="117.5" font-size="5.0" font-weight="bold" font-family="Helvetica Neue, Helvetica, Arial-Unicode, Arial, Sans-serif" fill="#000000">Created by Parmelyn</text><text x="0.0" y="122.5" font-size="5.0" font-weight="bold" font-family="Helvetica Neue, Helvetica, Arial-Unicode, Arial, Sans-serif" fill="#000000">from the Noun Project</text></svg>